<?xml version="1.0" standalone="no"?>
<!DOCTYPE svg PUBLIC "-//W3C//DTD SVG 20010904//EN"
 "http://www.w3.org/TR/2001/REC-SVG-20010904/DTD/svg10.dtd">
<svg version="1.0" xmlns="http://www.w3.org/2000/svg"
 width="2501.000000pt" height="2501.000000pt" viewBox="0 0 2501.000000 2501.000000"
 preserveAspectRatio="xMidYMid meet">

<g transform="translate(0.000000,2501.000000) scale(0.100000,-0.100000)"
fill="#000000" stroke="none">
<path d="M11975 24994 c-335 -19 -450 -28 -640 -45 -1850 -168 -3657 -760
-5260 -1722 -1152 -691 -2199 -1577 -3080 -2607 -1556 -1819 -2562 -4063
-2879 -6420 -341 -2532 83 -5069 1224 -7325 816 -1614 1947 -3005 3365 -4140
1233 -987 2660 -1738 4168 -2194 982 -297 1944 -463 3027 -521 388 -21 1083
-12 1530 20 1084 78 2211 314 3235 677 2556 907 4731 2602 6240 4863 653 978
1175 2067 1518 3165 316 1012 487 1951 559 3070 16 262 16 1118 0 1380 -37
574 -92 1036 -183 1545 -504 2806 -1983 5385 -4159 7250 -1534 1315 -3361
2242 -5300 2689 -662 153 -1262 242 -1990 297 -200 15 -1200 28 -1375 18z
m541 -6815 c48 -358 120 -733 215 -1114 69 -277 128 -479 289 -995 286 -919
321 -1086 321 -1529 -1 -769 -149 -1357 -413 -1647 -59 -64 -161 -133 -243
-164 -75 -28 -240 -39 -324 -20 -437 95 -693 704 -727 1730 -15 460 37 725
321 1625 145 458 206 670 280 960 101 396 197 899 236 1232 7 62 15 111 17
109 2 -2 14 -86 28 -187z m-6076 -4309 c635 -144 1225 -212 2220 -255 826 -36
1098 -73 1450 -198 616 -218 1144 -538 1361 -826 64 -86 123 -200 143 -277 20
-77 20 -221 1 -294 -43 -161 -162 -305 -315 -378 -304 -147 -785 -129 -1417
54 -452 130 -737 269 -1127 548 -72 51 -288 214 -481 361 -800 612 -1228 894
-1865 1230 -80 42 -136 74 -125 71 11 -3 81 -19 155 -36z m12090 -69 c-590
-312 -1021 -597 -1765 -1166 -576 -441 -773 -576 -1025 -704 -479 -243 -1257
-422 -1666 -382 -257 24 -410 84 -535 210 -117 117 -169 244 -169 409 0 102
12 154 60 257 95 205 311 413 633 608 230 141 652 331 922 417 297 94 617 133
1355 165 765 33 1200 72 1680 151 176 29 508 95 620 123 41 10 80 19 85 20 6
0 -82 -48 -195 -108z m-6795 -2746 c94 -25 173 -73 258 -156 123 -122 169
-244 169 -443 -2 -328 -201 -767 -572 -1261 -345 -458 -534 -617 -1370 -1150
-774 -494 -1232 -830 -1676 -1233 -211 -190 -211 -190 -189 -157 253 390 471
780 675 1206 112 235 179 388 365 834 385 924 490 1114 819 1482 418 469 842
784 1167 868 113 29 263 33 354 10z m1881 -10 c183 -46 425 -182 654 -366 133
-106 390 -357 533 -519 203 -230 315 -397 457 -680 94 -187 132 -275 326 -740
227 -543 306 -720 470 -1050 183 -366 348 -659 535 -950 30 -47 59 -92 64
-100 5 -8 -33 23 -84 70 -552 502 -961 807 -1821 1355 -751 479 -963 650
-1247 1010 -331 419 -546 802 -630 1125 -34 128 -43 335 -19 430 51 201 216
373 407 424 89 24 240 20 355 -9z"/>
</g>
</svg>
