<?xml version="1.0" standalone="no"?>
<!DOCTYPE svg PUBLIC "-//W3C//DTD SVG 20010904//EN"
 "http://www.w3.org/TR/2001/REC-SVG-20010904/DTD/svg10.dtd">
<svg version="1.0" xmlns="http://www.w3.org/2000/svg"
 width="512.000000pt" height="512.000000pt" viewBox="0 0 512.000000 512.000000"
 preserveAspectRatio="xMidYMid meet">

<g transform="translate(0.000000,512.000000) scale(0.100000,-0.100000)"
fill="#000000" stroke="none">
<path d="M2325 5109 c-501 -48 -991 -248 -1380 -564 -49 -40 -149 -133 -220
-206 -204 -210 -340 -404 -465 -663 -119 -246 -190 -474 -232 -741 -31 -200
-31 -550 0 -750 67 -430 234 -825 494 -1173 89 -119 302 -339 423 -437 269
-219 601 -390 932 -480 627 -172 1270 -106 1853 190 250 128 453 279 665 496
204 210 340 404 465 663 119 246 190 474 232 741 31 200 31 550 0 750 -67 430
-234 825 -494 1173 -89 119 -302 339 -423 437 -515 418 -1196 626 -1850 564z
m259 -1509 c14 -69 51 -208 82 -310 47 -153 57 -202 61 -283 13 -228 -49 -390
-154 -404 -116 -15 -186 121 -186 362 0 110 3 130 37 240 68 224 106 367 118
452 7 47 13 81 15 77 1 -5 13 -65 27 -134z m-1134 -785 c53 -8 174 -19 270
-25 96 -5 198 -12 225 -16 157 -18 373 -133 420 -225 33 -62 9 -135 -55 -166
-74 -36 -273 -8 -405 57 -33 16 -136 86 -230 156 -93 69 -215 153 -270 186
-55 33 -89 57 -75 54 14 -3 68 -12 120 -21z m2265 -34 c-55 -32 -176 -116
-270 -185 -93 -70 -197 -140 -230 -156 -132 -65 -331 -93 -405 -57 -64 31 -88
104 -55 166 35 68 172 157 305 199 81 25 110 29 340 42 102 6 230 19 285 29
55 10 107 19 115 20 8 0 -30 -26 -85 -58z m-1302 -525 c101 -42 101 -152 0
-315 -71 -114 -139 -175 -348 -314 -104 -69 -225 -155 -268 -192 l-78 -66 31
53 c54 93 116 219 175 358 31 74 72 162 90 195 63 115 204 246 301 280 49 18
58 18 97 1z m442 -24 c71 -38 204 -174 247 -252 20 -36 62 -126 93 -200 59
-139 121 -265 175 -358 l31 -53 -78 66 c-43 37 -163 123 -268 192 -209 139
-277 200 -348 314 -100 162 -101 271 -2 315 38 18 86 10 150 -24z"/>
</g>
</svg>
